PathFileType	4	(X/Y/Z)	/Users/FranklinZhao/OpenSimProject/Simulation/Models/Rajapogal_2015/marker_data/trc/SN001_0010_10m_01.trc
DataRate	CameraRate	NumFrames	NumMarkers	Units	OrigDataRate	OrigDataStartFrame	OrigNumFrames
200.000000	200.000000	4	72	mm	200.000000	240	641
Frame#	Time	LPSIS			RPSIS			LICR			RICR			LASIS			RASIS			STER			XPRO			C7			T4			T8			T10			RUA1			RUA2			RUA3			RUA4			RHLE			RHME			RTEMP			RHEAD			LHEAD			LTEMP			RACR			LACR			LUA1			LUA2			LUA3			LUA4			LHLE			LHME			LFA1			LFA2			LFA3			LRSP			LUSP			RFA1			RFA2			RFA3			RRSP			RUSP			LTH1			LTH2			LTH3			LTH4			LFLE			LFME			LSK1			LSK2			LSK3			LSK4			LTAM			LFAL			LFCC			LFMT1			LFMT2			LFMT5			RTH1			RTH2			RTH3			RTH4			RFLE			RFME			RSK1			RSK2			RSK3			RSK4			RFAL			RTAM			RFCC			RFMT1			RFMT2			RFMT5			
		X1	Y1	Z1	X2	Y2	Z2	X3	Y3	Z3	X4	Y4	Z4	X5	Y5	Z5	X6	Y6	Z6	X7	Y7	Z7	X8	Y8	Z8	X9	Y9	Z9	X10	Y10	Z10	X11	Y11	Z11	X12	Y12	Z12	X13	Y13	Z13	X14	Y14	Z14	X15	Y15	Z15	X16	Y16	Z16	X17	Y17	Z17	X18	Y18	Z18	X19	Y19	Z19	X20	Y20	Z20	X21	Y21	Z21	X22	Y22	Z22	X23	Y23	Z23	X24	Y24	Z24	X25	Y25	Z25	X26	Y26	Z26	X27	Y27	Z27	X28	Y28	Z28	X29	Y29	Z29	X30	Y30	Z30	X31	Y31	Z31	X32	Y32	Z32	X33	Y33	Z33	X34	Y34	Z34	X35	Y35	Z35	X36	Y36	Z36	X37	Y37	Z37	X38	Y38	Z38	X39	Y39	Z39	X40	Y40	Z40	X41	Y41	Z41	X42	Y42	Z42	X43	Y43	Z43	X44	Y44	Z44	X45	Y45	Z45	X46	Y46	Z46	X47	Y47	Z47	X48	Y48	Z48	X49	Y49	Z49	X50	Y50	Z50	X51	Y51	Z51	X52	Y52	Z52	X53	Y53	Z53	X54	Y54	Z54	X55	Y55	Z55	X56	Y56	Z56	X57	Y57	Z57	X58	Y58	Z58	X59	Y59	Z59	X60	Y60	Z60	X61	Y61	Z61	X62	Y62	Z62	X63	Y63	Z63	X64	Y64	Z64	X65	Y65	Z65	X66	Y66	Z66	X67	Y67	Z67	X68	Y68	Z68	X69	Y69	Z69	X70	Y70	Z70	X71	Y71	Z71	X72	Y72	Z72	

241	1.2	-105.4604034423828	266.5190124511719	977.62255859375	-104.4165878295898	187.4638214111328	986.5104370117188	-81.10166931152344	361.8310852050781	1034.280395507812	-76.40864562988281	101.9828796386719	1068.409423828125	82.47390747070312	353.0823974609375	946.8206176757812	95.17520141601562	97.49884033203125	978.8253784179688	57.72092819213867	231.4866790771484	1427.674682617188	122.1591110229492	240.3985290527344	1221.656860351562	-77.89750671386719	223.4346771240234	1527.375366210938	-131.1642456054688	236.9849548339844	1417.6259765625	-131.3095550537109	237.579345703125	1282.402099609375	-128.0088653564453	242.7299652099609	1238.522583007812	-103.9645385742188	-1.168373346328735	1310.704956054688	-31.33265686035156	-4.233630657196045	1290.9375	-39.43688201904297	-13.27234840393066	1217.738891601562	-113.7191162109375	-10.78195571899414	1225.83203125	-102.8135757446289	-11.58335494995117	1135.177978515625	-109.9318542480469	68.48461151123047	1130.947509765625	76.8870849609375	151.4973297119141	1689.154541015625	118.520622253418	187.3122711181641	1699.83056640625	117.8729019165039	269.6763000488281	1694.769409179688	70.07425689697266	306.9252319335938	1675.83984375	-35.80151748657227	44.14990997314453	1471.008422851562	-32.02708435058594	413.8279724121094	1494.233642578125	12.63104820251465	482.2651672363281	1350.088256835938	-57.78908157348633	483.6794738769531	1321.983520507812	-39.29580307006836	512.2186889648438	1242.27734375	29.97890663146973	509.9136657714844	1268.765991210938	10.69102191925049	529.8584594726562	1178.9482421875	-11.49685287475586	464.2063293457031	1145.600219726562	220.7095794677734	520.4725341796875	1074.90087890625	206.5151062011719	563.54443359375	1063.803833007812	226.6541290283203	529.717041015625	1042.29541015625	239.6445617675781	490.1637573242188	1008.419799804688	213.7281036376953	549.1665649414062	980.6963500976562	-68.43960571289062	-76.63008117675781	946.7258911132812	-45.41131973266602	-39.21413421630859	932.0392456054688	-68.42214202880859	-51.6116828918457	909.32275390625	-81.42665100097656	-26.84420776367188	854.603759765625	-121.7819976806641	-74.63571166992188	877.6368408203125	2.295658588409424	402.6075439453125	665.9902954101562	-46.84973526000977	394.8657836914062	672.420654296875	-65.93981170654297	384.4234619140625	566.3873901367188	-3.01057767868042	398.2087707519531	563.6671752929688	-50.1939811706543	385.1715698242188	472.6674194335938	-39.35315704345703	268.8992919921875	449.9524841308594	-199.4010925292969	400.9371032714844	372.8895874023438	-228.8242645263672	385.8685607910156	425.7778015136719	-302.0951232910156	365.4206848144531	382.8286437988281	-268.5421142578125	382.6332702636719	329.6253967285156	-400.7315673828125	263.183349609375	232.8855743408203	-440.5377807617188	321.4346923828125	275.9986267089844	-465.105712890625	262.4964904785156	288.6785278320312	-448.9361572265625	306.0784301757812	92.42698669433594	-452.8383483886719	336.6646118164062	99.07011413574219	-473.2929992675781	370.1965026855469	141.2647857666016	91.37742614746094	58.06365585327148	724.021240234375	151.1520385742188	63.90745162963867	727.1151123046875	183.3179016113281	77.74284362792969	647.3107299804688	121.6360244750977	76.53157806396484	628.123046875	173.3842468261719	103.2406234741211	530.532470703125	175.2132110595703	222.5598449707031	512.4776000976562	150.0056610107422	86.52912139892578	347.4229431152344	203.6883850097656	86.76941680908203	371.7319641113281	218.6785430908203	107.5824203491211	265.6295776367188	154.7417907714844	99.14612579345703	265.2597351074219	172.8641510009766	145.83935546875	69.80305480957031	209.1161956787109	221.6212158203125	92.48786163330078	137.8133392333984	195.8174133300781	43.48430252075195	337.1477355957031	186.1438598632812	35.36555099487305	341.7352294921875	146.9057922363281	33.48334121704102	297.7630615234375	100.8212203979492	25.09296226501465	
242	1.205	-96.90457916259766	265.5433654785156	979.84716796875	-95.88597869873047	186.5264739990234	988.5917358398438	-72.89920043945312	360.9950866699219	1035.919555664062	-68.43868255615234	101.1821365356445	1070.312133789062	90.88755035400391	352.5758666992188	948.776611328125	103.6280288696289	96.88611602783203	980.7948608398438	66.53408813476562	231.6268310546875	1429.683837890625	130.7647247314453	240.5944519042969	1223.533203125	-68.88953399658203	223.0989379882812	1529.51904296875	-122.3669357299805	236.4159088134766	1419.643920898438	-122.4784240722656	237.0747528076172	1284.524658203125	-119.1940383911133	242.2243957519531	1240.537231445312	-93.27523040771484	-1.849490761756897	1312.184936523438	-20.55427551269531	-4.431237697601318	1292.889404296875	-28.12700462341309	-13.68076992034912	1219.630249023438	-102.4361343383789	-11.69603157043457	1227.205932617188	-91.20901489257812	-12.57395362854004	1136.716186523438	-98.42858123779297	67.6871337890625	1132.15576171875	86.18630981445312	151.2893676757812	1691.126220703125	127.9176712036133	187.0925903320312	1701.984619140625	127.2672805786133	269.4266052246094	1696.57763671875	79.46250152587891	306.7173767089844	1677.85595703125	-26.32207679748535	43.84519958496094	1473.00341796875	-23.69941711425781	413.5758361816406	1496.015747070312	20.08978652954102	481.9135131835938	1351.038452148438	-50.61235427856445	482.4996948242188	1323.3525390625	-32.6505126953125	510.533447265625	1243.384521484375	36.96784973144531	508.8531494140625	1269.480346679688	16.80101585388184	527.9829711914062	1179.674560546875	-3.252143621444702	461.2355346679688	1147.4091796875	225.2853698730469	519.7357177734375	1072.057006835938	210.7939758300781	562.7619018554688	1061.289916992188	230.5984191894531	529.0049438476562	1039.254272460938	243.2611236572266	489.4477844238281	1005.329345703125	216.515625	548.1417236328125	977.95703125	-54.39568710327148	-77.63948059082031	948.6087646484375	-31.26476097106934	-40.29452514648438	934.2640991210938	-53.95743560791016	-52.56496429443359	911.2012939453125	-66.23825836181641	-27.91978073120117	856.3062744140625	-106.9372711181641	-75.58525085449219	879.0299682617188	15.72415256500244	402.6317138671875	667.3568115234375	-33.44867706298828	394.2188110351562	672.8843994140625	-50.70237350463867	383.9522705078125	566.4564819335938	12.32291030883789	398.3500671386719	564.9609375	-32.67873382568359	385.1565856933594	473.1620178222656	-21.93679237365723	268.5211486816406	450.6719055175781	-182.1506805419922	400.4569396972656	373.8963623046875	-211.1219940185547	385.6587219238281	427.1290893554688	-284.7164916992188	364.4841613769531	384.9905700683594	-251.6465301513672	381.5380554199219	331.4397277832031	-384.1987609863281	261.6451110839844	236.8968505859375	-423.7037048339844	320.167724609375	279.9209594726562	-449.2488098144531	261.307373046875	292.2298278808594	-431.24853515625	305.5572204589844	96.33972930908203	-434.9224548339844	336.3091430664062	102.9732284545898	-455.1818542480469	369.9942016601562	145.4685821533203	96.94089508056641	57.81507110595703	725.0604858398438	156.5283355712891	63.5703239440918	727.3333129882812	187.6865692138672	77.4307861328125	647.0200805664062	125.5558853149414	76.80622863769531	628.735595703125	176.8069763183594	103.1758651733398	530.7697143554688	178.0423583984375	222.8573760986328	512.4479370117188	152.2612457275391	86.62367248535156	347.6201171875	206.1821899414062	86.77758026123047	371.6829528808594	220.2206573486328	107.6451797485352	265.4053955078125	156.3600616455078	99.08486938476562	265.5104064941406	172.84716796875	145.9799194335938	69.86691284179688	209.1694946289062	221.8713989257812	92.38311767578125	137.8017883300781	195.933349609375	43.53639602661133	337.1293029785156	186.3126831054688	35.173583984375	341.7685852050781	146.9625854492188	33.45024108886719	297.7278442382812	100.7872848510742	25.13502502441406	
243	1.21	-88.33223724365234	264.4327087402344	982.1643676757812	-87.46269989013672	185.6185150146484	990.7920532226562	-64.86550903320312	359.9036865234375	1037.658203125	-61.55892944335938	99.56501770019531	1072.448974609375	99.39203643798828	352.0728454589844	950.87890625	112.0580596923828	96.43429565429688	982.81396484375	75.26315307617188	231.51318359375	1431.743286132812	139.2534332275391	241.015625	1225.666748046875	-59.90059280395508	222.7060852050781	1531.81103515625	-113.6052780151367	235.8933868408203	1421.860595703125	-113.8344650268555	236.6173248291016	1286.97119140625	-110.495719909668	241.6906890869141	1242.759643554688	-82.70334625244141	-2.572888612747192	1313.762451171875	-9.857460021972656	-4.612692832946777	1294.893188476562	-16.84524536132812	-13.88442707061768	1221.7587890625	-91.11405944824219	-12.64581298828125	1228.784423828125	-79.59366607666016	-13.29556751251221	1138.231567382812	-86.9881591796875	66.86138916015625	1133.689208984375	95.53768157958984	151.0433349609375	1692.910278320312	137.2881622314453	186.7023315429688	1703.702392578125	136.5181121826172	269.2307434082031	1698.662231445312	88.76430511474609	306.3085327148438	1679.787719726562	-16.83430480957031	43.60091018676758	1475.1142578125	-15.43083190917969	413.6015625	1497.89013671875	27.33769416809082	481.3009338378906	1352.345336914062	-43.43397521972656	481.4803466796875	1324.921142578125	-26.01638603210449	508.9823913574219	1244.475219726562	43.6750373840332	507.7099304199219	1270.307495117188	22.87191581726074	526.2047119140625	1180.516479492188	3.110431909561157	459.0735778808594	1149.072875976562	229.7934875488281	518.7261962890625	1069.302368164062	214.5681304931641	561.8990478515625	1058.548828125	234.2901458740234	528.0947265625	1036.37451171875	246.6801300048828	488.6357727050781	1002.199035644531	219.0162963867188	547.113037109375	975.2205810546875	-40.38621139526367	-78.55604553222656	950.6498413085938	-17.12029266357422	-41.14197158813477	936.5138549804688	-39.43893814086914	-53.59059906005859	913.2042236328125	-50.95275115966797	-28.97599601745605	858.074462890625	-91.94541931152344	-76.59957885742188	880.3133544921875	28.90506553649902	402.5525817871094	669.1661987304688	-20.42752838134766	392.4878845214844	673.1643676757812	-35.41032409667969	383.0614013671875	566.7905883789062	27.40846824645996	399.3260498046875	566.7034301757812	-15.22722816467285	385.2556457519531	474.091552734375	-4.43548583984375	268.2034912109375	452.0004577636719	-164.6871948242188	399.7796936035156	375.3768615722656	-193.1990051269531	385.342529296875	428.8596496582031	-266.99853515625	363.7974548339844	387.3074645996094	-234.3640441894531	380.5640258789062	333.4140014648438	-367.365234375	260.0733947753906	240.6318054199219	-406.5721130371094	319.3569030761719	283.3250732421875	-433.0865173339844	260.212890625	295.4248962402344	-413.0675964355469	304.9593811035156	99.68684387207031	-416.3580627441406	335.4349975585938	106.4253158569336	-436.6004943847656	369.5137023925781	149.0350494384766	102.4401626586914	57.65386581420898	726.0906372070312	162.1649627685547	63.24201583862305	727.7427978515625	192.1675415039062	77.35799407958984	646.8881225585938	129.5931701660156	76.20531463623047	629.4234008789062	180.0773162841797	103.0988311767578	530.8798217773438	180.6411285400391	223.1707153320312	512.6278686523438	154.4731903076172	86.52497100830078	347.9752197265625	208.5429229736328	86.91834259033203	371.4889831542969	221.5725402832031	107.8838500976562	265.1390991210938	157.8034057617188	98.78112030029297	265.8599548339844	172.8238677978516	146.0905914306641	69.96466827392578	209.2750549316406	222.0751953125	92.44181823730469	137.7891845703125	196.0609130859375	43.57479858398438	337.0900268554688	186.4719085693359	35.04660415649414	341.7793273925781	147.0204162597656	33.37131118774414	297.7169494628906	100.80078125	25.20332145690918	
244	1.215	-79.99790191650391	263.2399291992188	984.4317626953125	-79.05751800537109	184.5908966064453	992.8701782226562	-56.91229629516602	358.9887390136719	1039.403564453125	-52.83926010131836	98.67182159423828	1074.305053710938	107.7898483276367	352.0154724121094	953.0508422851562	120.2241363525391	96.13913726806641	984.4743041992188	83.888427734375	231.7963104248047	1433.8916015625	147.7170257568359	241.1750335693359	1227.833374023438	-50.97334289550781	222.3284759521484	1534.18701171875	-104.9101486206055	235.3847503662109	1424.329956054688	-105.1258316040039	236.1334991455078	1289.328979492188	-101.9888687133789	241.1496734619141	1244.932373046875	-72.17263031005859	-3.343528509140015	1315.329833984375	0.8977457284927368	-4.745541095733643	1297.109375	-5.492855548858643	-14.21926879882812	1223.775756835938	-79.82020568847656	-13.61657524108887	1230.308471679688	-67.68508911132812	-14.08069705963135	1140.028930664062	-75.53183746337891	65.99784851074219	1135.249267578125	104.9109954833984	150.8112487792969	1695.010986328125	146.5525665283203	186.6033325195312	1705.606323242188	145.8065032958984	268.9034423828125	1700.653930664062	97.95440673828125	306.2370910644531	1682.060180664062	-7.453641891479492	43.31707000732422	1477.27685546875	-7.373735904693604	413.5119018554688	1499.8154296875	34.46596145629883	481.3955993652344	1353.640502929688	-36.33638381958008	480.4646301269531	1326.492431640625	-19.46546173095703	507.3890075683594	1245.916625976562	50.32319641113281	506.5831298828125	1271.261962890625	28.93668937683105	524.2771606445312	1181.302124023438	9.167191505432129	456.8372497558594	1150.532592773438	234.0624694824219	517.8010864257812	1066.385986328125	218.4126739501953	560.8934326171875	1055.955200195312	237.8190460205078	527.1521606445312	1033.517456054688	249.7787780761719	487.859375	999.1281127929688	221.2938995361328	545.9639282226562	972.5513916015625	-26.36552238464355	-79.38080596923828	952.9136962890625	-2.754717111587524	-42.18756866455078	939.0711669921875	-24.85839080810547	-54.48291778564453	915.4556274414062	-35.48773193359375	-29.93434143066406	860.18994140625	-76.93506622314453	-77.33995819091797	881.8802490234375	41.87579345703125	402.03271484375	670.9502563476562	-7.386641979217529	391.64013671875	674.1171264648438	-20.20059967041016	382.2945861816406	567.6104736328125	42.44548797607422	399.3978271484375	568.7237548828125	2.081121444702148	385.1796569824219	475.3612670898438	13.08564949035645	267.8896179199219	453.5899658203125	-146.9139709472656	398.9712829589844	377.0103759765625	-175.2376251220703	384.6871337890625	430.61572265625	-249.1405944824219	362.937255859375	389.4859924316406	-216.7499084472656	379.5311889648438	335.4260864257812	-350.0836486816406	258.5834045410156	243.9027709960938	-389.0833435058594	318.6802062988281	286.4480285644531	-416.6709289550781	259.0851135253906	298.3926391601562	-394.3120422363281	303.9955139160156	102.8415603637695	-397.4492797851562	334.5557861328125	109.5722122192383	-417.6827392578125	368.7100524902344	152.0173645019531	108.0476531982422	57.37392044067383	727.2615356445312	167.6992492675781	63.15528106689453	728.0693359375	196.6554412841797	77.40498352050781	646.9713134765625	133.988525390625	76.19584655761719	630.2730102539062	183.2295379638672	103.0115661621094	531.1143188476562	183.0626678466797	223.4190216064453	512.842529296875	156.4390716552734	86.56027221679688	348.3659057617188	210.7037048339844	86.93018341064453	371.3925476074219	222.9567108154297	107.9881439208984	264.9386291503906	159.1802825927734	98.9669189453125	266.1798095703125	172.7970275878906	146.1055755615234	70.12815093994141	209.3887176513672	222.2467803955078	92.39073944091797	137.777099609375	196.1792449951172	43.59217834472656	337.0700378417969	186.5363159179688	34.9427604675293	341.7042541503906	147.0901947021484	33.40070343017578	297.6029357910156	100.8839950561523	25.26239395141602	
